<svg id="svg" version="1.1" xmlns="http://www.w3.org/2000/svg" xmlns:xlink="http://www.w3.org/1999/xlink" width="400" height="400" viewBox="0, 0, 400,400"><g id="svgg"><path id="path0" d="M254.883 130.119 C 253.809 130.298,252.402 130.509,251.758 130.586 C 249.357 130.875,245.703 131.808,245.703 132.132 C 245.703 132.317,245.543 132.369,245.348 132.248 C 244.915 131.981,238.809 134.098,236.191 135.422 C 235.149 135.950,234.041 136.284,233.729 136.164 C 233.418 136.044,233.266 136.113,233.392 136.318 C 233.676 136.778,230.588 138.401,230.055 138.072 C 229.842 137.940,229.716 138.065,229.775 138.350 C 229.835 138.636,229.579 138.843,229.203 138.814 C 228.830 138.784,228.601 138.885,228.695 139.037 C 228.999 139.529,227.293 140.689,226.635 140.437 C 226.286 140.303,226.125 140.318,226.278 140.471 C 226.596 140.789,225.868 141.797,225.320 141.797 C 225.119 141.797,225.079 141.594,225.233 141.346 C 225.407 141.064,225.340 141.001,225.054 141.178 C 224.802 141.333,224.685 141.604,224.794 141.780 C 225.064 142.216,224.034 143.022,223.381 142.885 C 223.090 142.824,222.883 142.956,222.921 143.178 C 223.057 143.963,220.470 146.664,220.122 146.101 C 219.895 145.734,219.950 145.675,220.313 145.898 C 220.661 146.114,220.730 146.062,220.529 145.738 C 220.110 145.059,218.937 146.188,218.857 147.348 C 218.794 148.275,215.815 151.183,215.064 151.050 C 214.835 151.010,214.704 151.300,214.771 151.696 C 214.908 152.497,213.707 153.579,213.090 153.211 C 212.873 153.081,212.920 153.252,213.194 153.590 C 213.697 154.212,212.889 154.948,211.946 154.727 C 211.748 154.681,211.801 154.901,212.062 155.217 C 212.620 155.889,212.006 156.469,211.230 156.003 C 210.899 155.803,210.914 155.921,211.278 156.370 C 211.628 156.801,211.662 157.031,211.376 157.031 C 211.135 157.031,210.938 157.295,210.938 157.617 C 210.938 157.939,210.751 158.203,210.524 158.203 C 210.296 158.203,210.204 158.355,210.319 158.542 C 210.434 158.728,210.205 159.172,209.811 159.530 C 209.416 159.887,208.780 160.873,208.398 161.720 C 208.016 162.567,207.554 163.168,207.372 163.055 C 207.189 162.942,207.156 163.152,207.297 163.520 C 207.440 163.891,207.394 164.091,207.195 163.969 C 206.998 163.846,206.810 164.125,206.779 164.588 C 206.660 166.341,206.465 167.188,206.179 167.188 C 206.017 167.188,205.997 167.482,206.135 167.841 C 206.323 168.332,206.226 168.434,205.749 168.251 C 205.217 168.046,205.170 168.160,205.466 168.938 C 205.679 169.497,205.678 169.919,205.464 169.994 C 204.361 170.377,203.569 182.514,204.296 187.891 C 204.513 189.496,206.416 195.313,206.724 195.313 C 206.918 195.313,206.977 195.474,206.855 195.672 C 206.733 195.869,206.905 196.302,207.237 196.634 C 207.569 196.966,207.836 197.376,207.831 197.545 C 207.811 198.198,208.271 199.219,208.586 199.219 C 208.767 199.219,208.868 199.653,208.810 200.184 C 208.751 200.716,208.840 201.066,209.006 200.963 C 209.377 200.734,211.133 203.485,211.133 204.297 C 211.134 204.619,211.343 204.883,211.599 204.883 C 212.066 204.883,213.672 206.402,213.672 206.843 C 213.672 206.972,213.452 206.953,213.184 206.800 C 212.915 206.648,213.301 207.165,214.041 207.949 C 215.365 209.351,215.905 209.754,215.430 208.984 C 215.297 208.770,215.340 208.594,215.525 208.594 C 215.960 208.594,218.328 211.031,218.309 211.458 C 218.301 211.637,218.425 211.901,218.585 212.044 C 218.745 212.188,218.749 212.085,218.594 211.816 C 218.424 211.521,218.537 211.328,218.880 211.328 C 219.436 211.328,220.116 212.379,219.974 213.017 C 219.935 213.194,220.090 213.223,220.320 213.081 C 220.815 212.775,221.954 213.619,221.669 214.080 C 221.560 214.255,221.677 214.526,221.929 214.682 C 222.215 214.858,222.282 214.795,222.108 214.513 C 221.680 213.822,222.046 213.958,224.183 215.287 C 225.267 215.960,226.042 216.691,225.907 216.910 C 225.771 217.130,225.852 217.190,226.087 217.044 C 226.608 216.723,231.675 219.159,231.403 219.600 C 231.297 219.772,231.511 219.797,231.880 219.656 C 232.371 219.467,232.464 219.537,232.230 219.916 C 232.017 220.262,232.061 220.340,232.365 220.152 C 233.004 219.758,234.441 220.280,234.125 220.792 C 233.974 221.037,234.045 221.102,234.295 220.948 C 234.532 220.801,235.784 221.038,237.077 221.474 C 239.880 222.418,240.495 222.456,240.495 221.686 C 240.495 221.247,240.368 221.211,239.974 221.538 C 239.593 221.855,239.453 221.853,239.453 221.532 C 239.453 221.291,239.233 221.138,238.965 221.191 C 238.696 221.245,238.502 220.975,238.533 220.592 C 238.571 220.125,238.442 220.008,238.142 220.236 C 237.696 220.577,236.195 219.404,236.582 219.017 C 236.686 218.913,236.451 218.854,236.061 218.887 C 235.658 218.920,235.398 218.722,235.459 218.428 C 235.518 218.143,235.422 218.000,235.245 218.109 C 234.793 218.389,233.793 217.707,233.771 217.104 C 233.762 216.828,233.518 216.654,233.230 216.717 C 232.635 216.848,230.794 215.266,231.053 214.847 C 231.146 214.696,230.701 214.073,230.064 213.463 C 229.427 212.853,228.906 212.502,228.906 212.683 C 228.906 212.864,228.548 212.688,228.111 212.292 C 227.674 211.897,227.408 211.333,227.521 211.040 C 227.633 210.746,227.594 210.588,227.433 210.687 C 226.881 211.028,225.702 209.818,225.644 208.852 C 225.612 208.322,225.463 207.963,225.313 208.056 C 224.892 208.316,224.147 206.683,224.456 206.182 C 224.637 205.890,224.554 205.848,224.213 206.058 C 223.834 206.293,223.764 206.199,223.953 205.708 C 224.109 205.301,224.054 205.134,223.814 205.282 C 223.271 205.618,221.985 202.573,220.954 198.507 C 220.482 196.643,220.000 194.941,219.884 194.727 C 219.349 193.738,219.494 182.853,220.086 179.492 C 221.007 174.276,222.792 168.937,223.474 169.359 C 223.664 169.476,223.703 169.270,223.562 168.902 C 223.389 168.450,223.452 168.322,223.757 168.511 C 224.062 168.699,224.126 168.572,223.953 168.120 C 223.779 167.669,223.843 167.541,224.148 167.730 C 224.453 167.918,224.517 167.791,224.343 167.339 C 224.155 166.848,224.225 166.754,224.603 166.988 C 224.944 167.199,225.027 167.157,224.847 166.865 C 224.471 166.258,225.327 164.758,225.861 165.088 C 226.127 165.253,226.182 165.176,226.003 164.887 C 225.604 164.241,226.862 162.400,227.459 162.758 C 227.772 162.946,227.758 162.829,227.416 162.407 C 226.928 161.805,228.107 160.606,228.958 160.839 C 229.094 160.876,229.182 160.673,229.153 160.388 C 229.039 159.246,235.539 153.223,236.346 153.722 C 236.562 153.855,236.713 153.819,236.682 153.642 C 236.512 152.663,236.779 152.268,237.487 152.453 C 237.942 152.572,238.220 152.472,238.170 152.206 C 238.124 151.960,238.392 151.782,238.765 151.811 C 239.139 151.841,239.360 151.728,239.257 151.561 C 238.970 151.097,241.001 149.911,241.653 150.161 C 242.022 150.303,242.128 150.219,241.948 149.929 C 241.763 149.630,241.882 149.558,242.299 149.718 C 242.771 149.900,242.867 149.794,242.680 149.297 C 242.461 148.710,242.511 148.697,243.113 149.187 C 243.668 149.639,243.772 149.644,243.674 149.212 C 243.522 148.537,250.533 146.017,252.030 146.208 C 252.610 146.282,252.995 146.199,252.886 146.023 C 252.777 145.847,252.830 145.702,253.004 145.701 C 253.178 145.700,254.375 145.524,255.664 145.310 C 258.271 144.877,268.614 144.686,269.531 145.053 C 269.854 145.182,270.381 145.258,270.703 145.222 C 271.701 145.109,275.002 146.165,274.780 146.525 C 274.664 146.713,274.834 146.764,275.159 146.640 C 275.932 146.343,278.587 147.224,278.304 147.683 C 278.183 147.878,278.327 147.945,278.623 147.831 C 279.372 147.544,281.350 148.350,281.058 148.823 C 280.916 149.053,281.090 149.106,281.489 148.953 C 281.941 148.779,282.068 148.843,281.880 149.148 C 281.691 149.453,281.819 149.517,282.270 149.343 C 282.761 149.155,282.855 149.225,282.621 149.603 C 282.410 149.944,282.452 150.027,282.744 149.847 C 283.282 149.514,284.869 150.298,284.585 150.757 C 284.474 150.937,284.689 151.060,285.063 151.030 C 285.439 151.000,285.694 151.208,285.635 151.494 C 285.576 151.778,285.715 151.895,285.945 151.753 C 286.454 151.439,287.575 152.297,287.280 152.774 C 287.164 152.962,287.304 153.026,287.592 152.915 C 288.082 152.727,290.238 154.606,290.370 155.335 C 290.403 155.516,290.551 155.623,290.700 155.574 C 291.096 155.442,292.601 157.459,292.377 157.822 C 292.272 157.992,292.538 158.038,292.968 157.926 C 293.398 157.813,293.750 157.546,293.750 157.331 C 293.750 157.116,294.102 157.032,294.532 157.145 C 294.962 157.257,295.227 157.210,295.122 157.039 C 294.857 156.610,295.895 155.808,296.541 155.943 C 296.832 156.005,297.020 155.816,296.959 155.525 C 296.765 154.605,297.673 153.825,298.316 154.358 C 298.622 154.612,298.841 154.658,298.804 154.461 C 298.642 153.611,298.869 153.125,299.426 153.125 C 299.755 153.125,300.127 152.857,300.253 152.529 C 300.440 152.043,300.600 152.023,301.120 152.419 C 301.471 152.686,301.632 152.755,301.479 152.572 C 301.122 152.150,301.883 150.692,302.319 150.961 C 302.499 151.072,302.870 150.894,303.143 150.564 C 303.417 150.234,303.915 150.070,304.250 150.198 C 304.585 150.327,304.738 150.311,304.591 150.164 C 304.443 150.016,304.669 149.455,305.093 148.916 C 305.838 147.969,305.520 146.556,304.679 147.075 C 304.340 147.285,301.086 144.033,301.098 143.496 C 301.111 142.916,300.316 142.187,299.931 142.425 C 299.426 142.738,298.004 141.401,298.312 140.903 C 298.457 140.667,298.364 140.624,298.083 140.798 C 297.481 141.170,296.021 139.892,296.373 139.303 C 296.517 139.063,296.337 139.108,295.973 139.403 C 295.327 139.927,295.116 139.698,295.251 138.620 C 295.268 138.484,294.981 138.396,294.614 138.425 C 294.246 138.453,293.987 138.263,294.038 138.002 C 294.096 137.710,293.884 137.623,293.486 137.776 C 293.085 137.930,292.937 137.867,293.096 137.610 C 293.241 137.376,293.058 137.221,292.672 137.251 C 292.298 137.281,292.034 137.091,292.085 136.830 C 292.142 136.538,291.931 136.451,291.533 136.604 C 291.166 136.744,290.987 136.690,291.118 136.478 C 291.245 136.273,291.010 136.071,290.596 136.031 C 288.944 135.867,288.672 135.796,288.672 135.529 C 288.672 135.376,288.147 135.034,287.505 134.768 C 286.863 134.502,286.451 134.102,286.589 133.879 C 286.735 133.642,286.650 133.590,286.385 133.754 C 285.852 134.083,284.284 133.666,284.534 133.261 C 284.628 133.109,284.236 133.010,283.661 133.042 C 283.087 133.073,282.441 132.965,282.227 132.801 C 279.268 130.547,262.285 128.881,254.883 130.119 M92.728 187.282 L 92.773 243.750 93.750 243.776 C 99.006 243.914,139.071 243.948,138.668 243.814 C 138.081 243.618,146.332 241.783,148.301 241.671 C 148.978 241.633,149.456 241.478,149.363 241.327 C 149.121 240.931,152.277 240.147,152.804 240.473 C 153.064 240.633,153.138 240.572,152.984 240.323 C 152.668 239.811,154.106 239.289,154.744 239.684 C 154.994 239.838,155.102 239.805,154.984 239.611 C 154.777 239.271,155.622 238.233,156.055 238.295 C 156.549 238.367,158.984 237.316,158.984 237.031 C 158.984 236.859,159.248 236.719,159.570 236.719 C 159.893 236.719,160.477 236.398,160.870 236.005 C 161.263 235.612,161.956 235.319,162.410 235.352 C 162.865 235.386,163.203 235.223,163.161 234.992 C 163.120 234.760,163.392 234.594,163.765 234.624 C 164.139 234.653,164.357 234.535,164.249 234.361 C 163.956 233.886,166.331 232.329,166.855 232.653 C 167.115 232.814,167.203 232.764,167.062 232.534 C 166.716 231.975,168.204 230.717,168.786 231.077 C 169.065 231.249,169.161 231.208,169.017 230.976 C 168.733 230.515,173.920 225.204,174.681 225.178 C 174.964 225.168,175.144 224.926,175.081 224.640 C 174.946 224.021,176.146 222.594,176.578 222.861 C 176.744 222.964,176.788 222.696,176.676 222.266 C 176.562 221.833,176.664 221.484,176.903 221.484 C 177.140 221.484,177.782 220.775,178.329 219.907 C 178.915 218.979,179.505 218.442,179.762 218.601 C 180.025 218.763,180.090 218.694,179.925 218.428 C 179.549 217.820,180.405 216.321,180.939 216.651 C 181.194 216.808,181.261 216.739,181.102 216.483 C 180.954 216.244,181.443 214.837,182.188 213.357 C 186.220 205.352,188.158 189.508,185.567 185.742 C 185.419 185.527,185.310 184.709,185.325 183.924 C 185.340 183.139,185.232 182.570,185.087 182.660 C 184.690 182.905,184.281 181.327,184.605 180.803 C 184.765 180.545,184.717 180.453,184.496 180.590 C 184.281 180.722,183.682 179.927,183.166 178.822 C 182.649 177.717,181.392 175.600,180.371 174.118 C 178.439 171.310,178.212 170.860,178.967 171.326 C 179.248 171.500,179.311 171.433,179.135 171.148 C 178.979 170.896,178.703 170.783,178.520 170.896 C 178.128 171.138,176.493 169.178,176.746 168.769 C 176.841 168.615,176.110 167.713,175.122 166.764 C 174.133 165.815,173.448 165.259,173.599 165.527 C 174.095 166.408,173.215 166.039,172.138 164.914 C 171.558 164.309,171.217 163.665,171.381 163.485 C 171.545 163.304,171.489 163.265,171.255 163.398 C 170.740 163.691,169.047 162.577,169.325 162.127 C 169.434 161.951,169.217 161.831,168.843 161.861 C 168.470 161.890,168.201 161.715,168.246 161.472 C 168.292 161.228,168.028 161.053,167.660 161.081 C 167.293 161.110,167.040 160.900,167.100 160.615 C 167.159 160.331,167.032 160.206,166.818 160.339 C 166.274 160.675,164.404 159.380,164.712 158.881 C 164.856 158.648,164.777 158.589,164.527 158.743 C 163.959 159.095,160.838 157.508,161.139 157.021 C 161.271 156.808,161.082 156.760,160.698 156.907 C 160.208 157.095,160.114 157.025,160.348 156.647 C 160.551 156.318,160.516 156.223,160.252 156.386 C 159.771 156.683,158.522 156.291,158.754 155.916 C 158.840 155.777,158.531 155.637,158.068 155.603 C 157.605 155.569,155.221 154.819,152.770 153.936 C 148.751 152.488,145.287 152.010,147.406 153.196 C 147.767 153.398,147.945 153.756,147.799 153.991 C 147.649 154.235,147.715 154.307,147.954 154.159 C 148.534 153.801,150.492 154.598,150.199 155.073 C 150.056 155.303,150.231 155.356,150.630 155.203 C 151.121 155.014,151.214 155.084,150.980 155.463 C 150.770 155.804,150.812 155.887,151.103 155.706 C 151.642 155.374,153.228 156.157,152.945 156.616 C 152.834 156.796,153.049 156.919,153.422 156.889 C 153.796 156.860,154.060 157.049,154.009 157.310 C 153.957 157.572,154.160 157.691,154.460 157.575 C 154.956 157.385,155.798 157.904,157.274 159.309 C 157.574 159.595,157.703 160.017,157.560 160.248 C 157.417 160.480,157.483 160.555,157.708 160.416 C 157.931 160.278,158.837 160.826,159.721 161.634 C 161.248 163.030,161.888 164.055,160.840 163.425 C 160.504 163.223,160.518 163.336,160.884 163.788 C 161.177 164.149,161.553 164.360,161.720 164.257 C 162.158 163.986,164.152 166.727,163.860 167.199 C 163.724 167.418,163.835 167.549,164.104 167.490 C 164.734 167.352,167.686 172.982,167.453 173.876 C 167.331 174.339,167.451 174.484,167.834 174.337 C 168.140 174.219,168.363 174.276,168.329 174.464 C 168.295 174.651,168.301 174.893,168.343 175.000 C 168.385 175.107,168.474 175.459,168.542 175.781 C 168.610 176.104,168.971 177.773,169.345 179.492 C 170.269 183.736,170.299 193.100,169.405 197.684 C 168.425 202.701,166.244 208.781,165.572 208.366 C 165.391 208.254,165.338 208.410,165.454 208.712 C 165.702 209.358,164.129 212.197,163.678 211.918 C 163.508 211.813,163.394 212.033,163.423 212.407 C 163.453 212.782,163.245 213.038,162.959 212.979 C 162.675 212.920,162.554 213.052,162.691 213.274 C 163.025 213.814,160.179 217.247,159.661 216.928 C 159.433 216.787,159.370 216.864,159.518 217.104 C 159.664 217.339,159.045 218.201,158.143 219.019 C 157.241 219.838,156.169 220.829,155.760 221.222 C 155.329 221.636,154.749 221.832,154.376 221.689 C 154.023 221.554,153.863 221.571,154.019 221.728 C 154.602 222.311,152.662 223.863,152.010 223.335 C 151.554 222.966,151.480 222.964,151.698 223.327 C 151.970 223.779,146.718 226.830,145.996 226.640 C 145.835 226.597,145.703 226.719,145.703 226.910 C 145.703 227.101,145.483 227.233,145.215 227.203 C 144.759 227.152,139.977 228.331,138.672 228.816 C 137.746 229.160,136.773 229.217,125.391 229.585 C 111.783 230.026,110.804 230.021,110.455 229.517 C 110.297 229.288,110.166 210.245,110.162 187.197 L 110.156 145.293 111.158 144.912 C 112.453 144.420,133.164 144.412,135.963 144.903 C 137.131 145.108,139.229 145.385,140.625 145.519 C 143.982 145.841,144.597 145.939,145.422 146.285 C 145.804 146.446,146.595 146.603,147.180 146.636 C 147.764 146.668,148.474 146.840,148.756 147.019 C 149.039 147.198,149.359 147.255,149.468 147.147 C 149.576 147.039,150.113 147.183,150.662 147.468 C 151.211 147.752,151.902 147.892,152.197 147.779 C 152.493 147.665,152.734 147.744,152.734 147.954 C 152.734 148.326,156.155 149.481,156.738 149.306 C 156.899 149.258,157.031 149.375,157.031 149.567 C 157.031 149.759,157.478 150.027,158.024 150.164 C 158.592 150.307,158.906 150.592,158.758 150.832 C 158.586 151.110,158.777 151.101,159.328 150.806 C 159.918 150.491,160.156 150.486,160.156 150.791 C 160.156 151.026,160.332 151.109,160.547 150.977 C 160.762 150.844,160.938 150.900,160.938 151.101 C 160.938 151.303,161.463 151.685,162.104 151.951 C 162.746 152.217,163.159 152.617,163.021 152.840 C 162.878 153.071,162.959 153.129,163.209 152.974 C 163.451 152.825,164.225 153.009,164.930 153.385 C 165.634 153.760,166.343 154.031,166.504 153.987 C 166.775 153.912,166.946 154.500,166.848 155.162 C 166.825 155.315,167.097 155.329,167.452 155.193 C 167.853 155.039,168.000 155.102,167.842 155.358 C 167.697 155.593,167.880 155.748,168.266 155.718 C 168.640 155.688,168.908 155.863,168.863 156.106 C 168.818 156.350,169.081 156.525,169.449 156.497 C 169.855 156.466,170.066 156.675,169.987 157.031 C 169.915 157.354,169.982 157.492,170.136 157.338 C 170.558 156.916,171.936 157.788,171.630 158.283 C 171.466 158.549,171.543 158.603,171.832 158.425 C 172.416 158.064,173.519 158.928,173.178 159.480 C 173.027 159.723,173.117 159.769,173.402 159.592 C 173.930 159.266,175.487 160.466,175.180 160.963 C 175.074 161.134,175.193 161.401,175.445 161.557 C 175.730 161.733,175.797 161.670,175.623 161.388 C 175.470 161.140,175.503 160.938,175.698 160.938 C 176.179 160.938,177.396 162.318,177.140 162.574 C 177.027 162.687,177.236 163.024,177.605 163.323 C 178.048 163.683,178.176 163.702,177.982 163.379 C 177.458 162.507,178.040 162.858,179.858 164.513 C 181.562 166.064,182.386 167.458,180.957 166.373 C 180.581 166.088,180.873 166.499,181.605 167.287 C 182.337 168.075,183.074 168.635,183.242 168.531 C 183.714 168.239,185.201 170.024,184.975 170.612 C 184.865 170.899,184.924 171.042,185.107 170.929 C 185.290 170.816,185.991 171.329,186.665 172.070 C 187.946 173.478,188.231 174.067,187.402 173.597 C 187.134 173.445,187.513 173.955,188.245 174.731 C 189.378 175.931,190.234 176.279,190.234 175.540 C 190.234 175.432,190.031 175.470,189.783 175.623 C 189.487 175.806,189.439 175.729,189.644 175.398 C 189.878 175.019,190.128 175.122,190.650 175.815 C 191.032 176.321,191.273 176.853,191.185 176.996 C 191.096 177.139,191.330 177.231,191.703 177.202 C 192.077 177.173,192.348 177.342,192.304 177.579 C 192.257 177.838,192.646 177.942,193.281 177.841 C 194.108 177.709,194.209 177.763,193.750 178.088 C 193.428 178.317,193.349 178.506,193.574 178.510 C 195.134 178.532,194.696 177.499,191.949 174.670 C 190.343 173.018,189.139 171.458,189.248 171.175 C 189.356 170.893,189.284 170.762,189.088 170.883 C 188.585 171.193,187.000 168.852,187.340 168.302 C 187.527 167.999,187.449 167.954,187.103 168.168 C 186.725 168.402,186.655 168.308,186.843 167.817 C 186.991 167.431,186.942 167.245,186.727 167.378 C 186.240 167.679,183.485 162.211,183.836 161.642 C 184.012 161.359,183.925 161.319,183.588 161.527 C 183.209 161.761,183.139 161.667,183.328 161.177 C 183.501 160.725,183.437 160.597,183.132 160.786 C 182.827 160.974,182.764 160.847,182.937 160.395 C 183.082 160.017,183.035 159.824,182.828 159.952 C 182.340 160.253,181.529 158.700,181.878 158.135 C 182.034 157.882,181.979 157.799,181.749 157.941 C 181.215 158.271,179.190 155.186,179.540 154.576 C 179.690 154.315,179.667 154.234,179.489 154.395 C 179.311 154.557,178.843 154.398,178.450 154.042 C 177.664 153.331,177.465 152.522,178.185 152.967 C 178.467 153.141,178.530 153.074,178.354 152.788 C 178.198 152.537,177.927 152.420,177.752 152.528 C 177.383 152.756,176.535 151.841,176.422 151.094 C 176.302 150.299,175.757 149.578,175.430 149.780 C 175.267 149.881,174.186 149.005,173.029 147.834 C 171.872 146.662,171.072 145.703,171.253 145.703 C 171.433 145.703,171.359 145.437,171.090 145.112 C 170.731 144.680,170.464 144.634,170.093 144.942 C 169.585 145.364,168.456 144.000,168.677 143.233 C 168.728 143.056,168.582 143.027,168.352 143.169 C 167.868 143.468,166.715 142.636,166.992 142.187 C 167.095 142.021,166.873 141.909,166.500 141.939 C 166.126 141.968,165.857 141.793,165.903 141.550 C 165.948 141.307,165.684 141.131,165.317 141.159 C 164.949 141.188,164.685 141.012,164.731 140.769 C 164.776 140.525,164.512 140.350,164.145 140.378 C 163.777 140.406,163.525 140.197,163.584 139.912 C 163.643 139.628,163.516 139.503,163.302 139.635 C 162.771 139.964,160.465 138.730,160.750 138.269 C 160.880 138.059,160.689 138.010,160.308 138.157 C 159.817 138.345,159.723 138.275,159.957 137.897 C 160.158 137.572,160.125 137.473,159.870 137.631 C 159.646 137.769,158.171 137.284,156.593 136.553 C 155.014 135.822,153.558 135.325,153.357 135.449 C 153.156 135.574,153.101 135.392,153.234 135.045 C 153.387 134.647,153.303 134.479,153.007 134.589 C 152.750 134.685,151.412 134.420,150.034 134.000 C 148.656 133.580,147.396 133.318,147.235 133.417 C 147.074 133.517,146.883 133.438,146.811 133.243 C 146.739 133.047,146.152 132.833,145.508 132.767 C 144.863 132.701,144.118 132.489,143.853 132.295 C 143.587 132.102,143.109 132.044,142.791 132.166 C 142.473 132.288,142.102 132.208,141.966 131.989 C 141.830 131.769,141.253 131.639,140.684 131.699 C 140.114 131.758,139.384 131.638,139.062 131.431 C 138.709 131.204,129.374 131.007,115.580 130.934 L 92.683 130.813 92.728 187.282 M175.391 167.383 C 176.119 168.135,176.628 168.750,176.520 168.750 C 176.413 168.750,175.729 168.135,175.000 167.383 C 174.271 166.631,173.763 166.016,173.870 166.016 C 173.978 166.016,174.662 166.631,175.391 167.383 M203.259 181.055 C 203.260 182.773,203.329 183.428,203.412 182.509 C 203.494 181.590,203.493 180.184,203.409 179.384 C 203.325 178.584,203.257 179.336,203.259 181.055 M306.738 186.207 C 307.114 186.305,307.729 186.305,308.105 186.207 C 308.481 186.109,308.174 186.028,307.422 186.028 C 306.670 186.028,306.362 186.109,306.738 186.207 M271.484 193.257 L 271.484 199.599 284.863 199.702 L 298.242 199.805 298.124 202.344 C 297.854 208.112,295.813 216.371,294.811 215.752 C 294.585 215.612,294.529 215.695,294.681 215.942 C 295.066 216.564,293.433 219.623,292.893 219.289 C 292.623 219.122,292.567 219.198,292.747 219.488 C 293.108 220.073,292.244 221.175,291.692 220.834 C 291.447 220.682,291.404 220.773,291.582 221.062 C 291.898 221.573,290.328 223.542,289.844 223.242 C 289.462 223.006,287.760 224.872,287.645 225.653 C 287.530 226.440,286.693 227.007,286.015 226.758 C 285.735 226.655,285.605 226.732,285.726 226.928 C 286.037 227.430,283.696 229.015,283.145 228.675 C 282.843 228.488,282.798 228.567,283.012 228.912 C 283.246 229.291,283.152 229.361,282.661 229.172 C 282.292 229.031,282.089 229.075,282.210 229.270 C 282.524 229.778,278.421 231.909,277.230 231.856 C 276.681 231.832,276.305 231.931,276.395 232.076 C 276.606 232.418,275.902 232.677,272.812 233.394 C 266.155 234.937,258.113 234.919,251.115 233.344 C 249.535 232.989,247.847 232.680,247.363 232.658 C 246.880 232.635,246.484 232.474,246.484 232.298 C 246.484 232.122,246.133 232.090,245.703 232.227 C 245.273 232.363,244.922 232.310,244.922 232.108 C 244.922 231.825,242.741 231.007,241.016 230.642 C 240.908 230.619,239.941 230.206,238.867 229.723 C 237.793 229.241,236.606 228.822,236.230 228.793 C 235.854 228.764,235.547 228.628,235.547 228.492 C 235.547 228.355,234.849 227.929,233.995 227.544 C 233.142 227.159,232.535 226.695,232.648 226.512 C 232.761 226.330,232.551 226.297,232.183 226.438 C 231.676 226.633,231.594 226.560,231.847 226.141 C 232.115 225.696,232.036 225.702,231.447 226.172 C 230.775 226.708,230.737 226.695,230.990 226.019 C 231.237 225.363,231.193 225.341,230.600 225.824 C 230.007 226.306,229.963 226.285,230.209 225.628 C 230.445 225.001,230.397 224.964,229.892 225.383 C 229.565 225.655,229.297 225.708,229.297 225.501 C 229.297 225.294,228.848 224.921,228.298 224.670 C 227.749 224.420,227.407 224.042,227.537 223.831 C 227.678 223.603,227.501 223.551,227.105 223.704 C 226.734 223.846,226.533 223.800,226.656 223.602 C 226.778 223.404,226.481 223.218,225.996 223.189 C 225.036 223.132,223.372 221.906,223.649 221.459 C 223.743 221.307,223.518 221.206,223.150 221.236 C 222.781 221.265,222.476 221.084,222.470 220.833 C 222.465 220.583,222.301 220.231,222.105 220.052 C 221.895 219.860,221.878 219.947,222.062 220.266 C 222.276 220.634,222.203 220.747,221.832 220.624 C 221.533 220.524,221.281 220.194,221.271 219.889 C 221.262 219.585,221.023 219.386,220.742 219.447 C 220.042 219.600,219.091 218.755,219.401 218.255 C 219.550 218.013,219.462 217.966,219.184 218.137 C 218.599 218.499,217.497 217.635,217.838 217.083 C 217.982 216.849,217.901 216.793,217.647 216.950 C 216.901 217.411,212.510 213.721,212.777 212.858 C 212.823 212.712,212.502 212.269,212.065 211.874 C 211.628 211.478,211.304 211.326,211.345 211.534 C 211.519 212.411,211.257 212.330,209.961 211.108 C 208.646 209.868,208.070 208.632,209.082 209.224 C 209.351 209.381,209.239 209.132,208.835 208.670 C 208.430 208.209,207.972 207.909,207.818 208.005 C 207.342 208.299,206.131 207.190,206.073 206.406 C 206.043 205.998,205.879 205.637,205.707 205.605 C 204.923 205.455,203.124 203.302,203.331 202.761 C 203.455 202.437,203.426 202.303,203.265 202.464 C 203.105 202.624,201.997 201.808,200.803 200.651 C 198.679 198.591,197.266 197.707,197.266 198.438 C 197.266 198.639,197.020 198.709,196.719 198.594 C 196.419 198.479,196.040 198.599,195.878 198.862 C 195.704 199.143,195.745 199.239,195.977 199.096 C 196.193 198.962,196.779 199.286,197.277 199.817 C 197.775 200.347,198.034 200.781,197.852 200.781 C 197.669 200.781,197.926 201.213,198.421 201.741 C 198.917 202.268,199.431 202.670,199.564 202.634 C 200.361 202.417,201.586 203.602,201.131 204.151 C 200.866 204.470,200.811 204.701,201.008 204.663 C 202.010 204.473,202.422 204.738,202.234 205.455 C 202.115 205.910,202.216 206.189,202.481 206.139 C 202.728 206.093,202.906 206.355,202.878 206.723 C 202.850 207.091,203.025 207.354,203.269 207.309 C 203.512 207.264,203.687 207.532,203.657 207.906 C 203.628 208.280,203.728 208.508,203.881 208.414 C 204.444 208.066,205.422 209.656,204.942 210.139 C 204.601 210.483,204.658 210.530,205.176 210.333 C 205.837 210.081,206.020 210.470,205.965 212.008 C 205.955 212.274,206.133 212.377,206.360 212.236 C 206.620 212.076,206.678 212.230,206.516 212.652 C 206.343 213.103,206.407 213.231,206.711 213.042 C 207.016 212.854,207.080 212.981,206.907 213.433 C 206.733 213.884,206.797 214.012,207.102 213.823 C 207.407 213.635,207.471 213.762,207.297 214.214 C 207.124 214.666,207.188 214.793,207.493 214.605 C 207.798 214.416,207.861 214.544,207.688 214.995 C 207.542 215.377,207.590 215.567,207.800 215.437 C 208.254 215.157,209.498 217.454,209.175 217.976 C 209.040 218.195,209.237 218.241,209.648 218.086 C 210.274 217.851,210.291 217.897,209.797 218.504 C 209.318 219.092,209.318 219.168,209.797 219.065 C 210.123 218.995,210.329 219.226,210.298 219.625 C 210.269 219.998,210.369 220.227,210.521 220.133 C 211.086 219.784,212.062 221.375,211.583 221.863 C 211.242 222.210,211.275 222.291,211.719 222.196 C 212.073 222.120,212.284 222.334,212.253 222.739 C 212.225 223.106,212.400 223.370,212.644 223.325 C 212.887 223.279,213.062 223.548,213.032 223.922 C 213.003 224.295,213.111 224.519,213.273 224.419 C 213.758 224.120,214.946 225.690,214.626 226.208 C 214.450 226.493,214.495 226.582,214.739 226.432 C 215.224 226.132,216.037 227.021,216.182 228.008 C 216.239 228.395,216.474 228.711,216.705 228.711 C 217.122 228.711,218.184 229.620,219.771 231.334 C 220.226 231.825,221.413 232.990,222.409 233.923 C 223.405 234.856,224.105 235.806,223.964 236.034 C 223.823 236.262,223.875 236.345,224.079 236.219 C 224.577 235.912,225.586 236.563,225.586 237.192 C 225.586 237.468,225.938 237.695,226.367 237.695 C 226.797 237.695,227.111 237.897,227.064 238.144 C 227.014 238.409,227.293 238.510,227.748 238.391 C 228.455 238.206,228.722 238.601,228.552 239.580 C 228.521 239.757,228.674 239.792,228.891 239.658 C 229.485 239.290,232.864 241.395,232.542 241.932 C 232.394 242.180,232.569 242.142,232.933 241.847 C 233.296 241.552,233.594 241.484,233.594 241.697 C 233.594 242.113,237.982 244.186,241.309 245.340 C 242.437 245.731,243.359 245.938,243.359 245.799 C 243.359 245.660,243.557 245.744,243.798 245.985 C 244.039 246.226,244.478 246.330,244.774 246.217 C 245.070 246.103,245.313 246.173,245.313 246.371 C 245.313 246.751,249.612 247.718,251.949 247.864 C 252.703 247.911,253.601 248.068,253.944 248.212 C 254.441 248.422,260.976 248.368,268.750 248.091 C 270.304 248.036,275.943 246.834,276.317 246.478 C 276.504 246.300,276.900 246.248,277.196 246.361 C 277.492 246.475,277.734 246.403,277.734 246.202 C 277.734 246.001,278.336 245.856,279.072 245.880 C 279.808 245.905,280.337 245.805,280.246 245.660 C 280.096 245.416,281.247 244.795,281.597 244.930 C 281.680 244.962,281.887 244.765,282.055 244.492 C 282.300 244.097,282.503 244.110,283.053 244.556 C 283.433 244.865,283.631 244.929,283.494 244.700 C 283.186 244.184,287.377 242.066,287.976 242.435 C 288.225 242.590,288.291 242.519,288.134 242.264 C 287.818 241.754,290.065 240.474,290.646 240.833 C 290.860 240.966,291.010 240.929,290.979 240.752 C 290.793 239.682,291.024 239.364,291.624 239.862 C 292.126 240.279,292.211 240.271,292.112 239.812 C 292.042 239.487,292.273 239.280,292.672 239.311 C 293.045 239.341,293.267 239.229,293.164 239.063 C 292.871 238.588,294.053 237.791,294.574 238.113 C 294.835 238.274,294.941 238.237,294.813 238.031 C 294.546 237.599,301.480 231.002,302.032 231.162 C 302.235 231.221,302.289 231.086,302.150 230.862 C 301.851 230.379,304.225 227.253,304.678 227.533 C 304.849 227.639,304.966 227.420,304.936 227.047 C 304.907 226.673,305.082 226.404,305.325 226.450 C 305.568 226.495,305.744 226.231,305.716 225.864 C 305.687 225.496,305.897 225.244,306.181 225.303 C 306.466 225.362,306.590 225.233,306.456 225.018 C 306.103 224.447,306.993 222.977,307.502 223.292 C 307.753 223.447,307.823 223.380,307.670 223.133 C 307.318 222.562,309.018 219.115,309.504 219.416 C 309.715 219.546,309.763 219.452,309.611 219.206 C 309.459 218.961,309.759 217.571,310.277 216.118 C 310.795 214.665,311.141 213.257,311.046 212.988 C 310.950 212.720,311.047 212.500,311.261 212.500 C 311.593 212.500,312.062 210.729,312.297 208.594 C 312.333 208.271,312.477 207.656,312.617 207.227 C 313.101 205.745,313.343 202.514,313.554 194.727 L 313.766 186.914 292.625 186.914 L 271.484 186.914 271.484 193.257 " stroke="none" fill="#5c6163" fill-rule="evenodd"></path><path id="path1" d="M92.378 186.914 C 92.378 218.281,92.424 231.171,92.480 215.558 C 92.537 199.945,92.537 174.281,92.480 158.527 C 92.424 142.773,92.378 155.547,92.378 186.914 M133.496 130.744 C 133.979 130.838,134.771 130.838,135.254 130.744 C 135.737 130.651,135.342 130.575,134.375 130.575 C 133.408 130.575,133.013 130.651,133.496 130.744 M220.093 145.801 L 218.945 147.070 220.311 145.898 C 221.061 145.254,221.750 144.683,221.840 144.629 C 221.931 144.575,221.833 144.531,221.623 144.531 C 221.412 144.531,220.724 145.103,220.093 145.801 M117.308 145.214 C 120.060 145.281,124.454 145.281,127.074 145.213 C 129.693 145.146,127.441 145.091,122.070 145.091 C 116.699 145.091,114.556 145.147,117.308 145.214 M260.449 145.212 C 262.007 145.286,264.556 145.286,266.113 145.212 C 267.671 145.138,266.396 145.077,263.281 145.077 C 260.166 145.077,258.892 145.138,260.449 145.212 M110.345 187.695 C 110.345 210.469,110.392 219.843,110.449 208.526 C 110.507 197.209,110.507 178.577,110.449 167.120 C 110.392 155.663,110.345 164.922,110.345 187.695 M213.227 153.418 C 212.103 154.775,211.627 155.469,211.820 155.469 C 211.928 155.469,212.486 154.854,213.059 154.102 C 214.124 152.706,214.253 152.179,213.227 153.418 M153.906 157.154 C 153.906 157.250,154.552 157.821,155.340 158.423 C 156.129 159.025,156.651 159.317,156.500 159.073 C 156.191 158.573,153.906 156.882,153.906 157.154 M210.305 157.520 C 208.961 159.801,208.873 159.996,209.558 159.180 C 210.351 158.234,211.035 157.031,210.779 157.031 C 210.677 157.031,210.463 157.251,210.305 157.520 M157.031 159.497 C 157.031 159.564,157.603 160.136,158.301 160.767 L 159.570 161.914 158.423 160.645 C 157.354 159.461,157.031 159.195,157.031 159.497 M228.016 161.426 C 226.725 163.034,225.646 164.693,226.427 163.867 C 227.324 162.920,229.721 159.766,229.544 159.766 C 229.437 159.766,228.749 160.513,228.016 161.426 M160.938 163.477 C 161.666 164.229,162.351 164.844,162.458 164.844 C 162.565 164.844,162.057 164.229,161.328 163.477 C 160.599 162.725,159.915 162.109,159.808 162.109 C 159.700 162.109,160.209 162.725,160.938 163.477 M181.055 166.406 C 182.547 167.910,183.856 169.141,183.963 169.141 C 184.071 169.141,182.938 167.910,181.445 166.406 C 179.953 164.902,178.644 163.672,178.537 163.672 C 178.429 163.672,179.562 164.902,181.055 166.406 M205.839 166.656 C 205.623 167.223,205.519 167.759,205.608 167.848 C 205.697 167.936,205.956 167.472,206.185 166.817 C 206.692 165.360,206.386 165.217,205.839 166.656 M188.281 174.414 C 189.448 175.596,190.491 176.563,190.598 176.563 C 190.706 176.563,189.839 175.596,188.672 174.414 C 187.505 173.232,186.462 172.266,186.355 172.266 C 186.247 172.266,187.114 173.232,188.281 174.414 M167.443 174.219 C 167.888 175.978,168.801 178.128,168.539 176.801 C 168.417 176.180,168.065 175.125,167.756 174.457 C 167.335 173.543,167.257 173.484,167.443 174.219 M220.926 175.614 C 220.783 176.186,220.740 176.730,220.833 176.822 C 220.925 176.914,221.117 176.521,221.261 175.949 C 221.405 175.376,221.447 174.832,221.355 174.740 C 221.263 174.648,221.070 175.041,220.926 175.614 M169.643 184.570 C 169.646 185.645,169.722 186.038,169.812 185.444 C 169.901 184.850,169.899 183.971,169.806 183.491 C 169.714 183.010,169.640 183.496,169.643 184.570 M203.622 185.156 C 203.622 186.123,203.698 186.519,203.791 186.035 C 203.884 185.552,203.884 184.761,203.791 184.277 C 203.698 183.794,203.622 184.189,203.622 185.156 M219.674 187.305 C 219.675 189.453,219.741 190.282,219.820 189.147 C 219.899 188.012,219.898 186.254,219.818 185.241 C 219.738 184.228,219.673 185.156,219.674 187.305 M271.182 193.262 L 271.269 200.195 271.386 193.457 L 271.503 186.719 292.579 186.719 L 313.655 186.719 313.770 194.238 L 313.885 201.758 313.974 194.043 L 314.063 186.328 292.578 186.328 L 271.094 186.328 271.182 193.262 M186.868 194.336 C 186.869 196.914,186.932 197.918,187.008 196.567 C 187.085 195.216,187.084 193.106,187.007 191.879 C 186.930 190.652,186.867 191.758,186.868 194.336 M169.648 192.578 C 169.648 193.760,169.722 194.243,169.811 193.652 C 169.901 193.062,169.901 192.095,169.811 191.504 C 169.722 190.913,169.648 191.396,169.648 192.578 M220.013 193.359 C 220.013 194.111,220.093 194.419,220.191 194.043 C 220.289 193.667,220.289 193.052,220.191 192.676 C 220.093 192.300,220.013 192.607,220.013 193.359 M206.250 195.846 C 206.250 196.270,208.191 200.000,208.412 200.000 C 208.519 200.000,208.143 199.077,207.577 197.949 C 206.487 195.780,206.250 195.404,206.250 195.846 M278.223 199.902 C 281.821 199.966,287.710 199.966,291.309 199.902 C 294.907 199.837,291.963 199.784,284.766 199.784 C 277.568 199.784,274.624 199.837,278.223 199.902 M168.192 201.004 C 168.048 201.577,168.006 202.121,168.098 202.213 C 168.190 202.305,168.383 201.912,168.527 201.339 C 168.670 200.767,168.713 200.223,168.621 200.131 C 168.529 200.039,168.336 200.432,168.192 201.004 M197.656 200.513 C 197.656 200.580,198.228 201.151,198.926 201.782 L 200.195 202.930 199.048 201.660 C 197.979 200.477,197.656 200.211,197.656 200.513 M297.768 202.539 C 297.771 203.613,297.847 204.006,297.937 203.413 C 298.026 202.819,298.024 201.940,297.931 201.459 C 297.839 200.979,297.765 201.465,297.768 202.539 M313.380 203.711 C 313.384 204.570,313.464 204.876,313.558 204.390 C 313.651 203.904,313.647 203.201,313.550 202.827 C 313.452 202.454,313.375 202.852,313.380 203.711 M223.438 205.078 C 223.876 205.938,224.323 206.641,224.430 206.641 C 224.537 206.641,224.267 205.938,223.828 205.078 C 223.390 204.219,222.943 203.516,222.836 203.516 C 222.728 203.516,222.999 204.219,223.438 205.078 M213.867 207.422 C 214.706 208.281,215.481 208.984,215.588 208.984 C 215.696 208.984,215.097 208.281,214.258 207.422 C 213.419 206.562,212.644 205.859,212.537 205.859 C 212.429 205.859,213.028 206.562,213.867 207.422 M204.326 209.180 C 204.808 210.039,205.371 210.918,205.576 211.133 C 206.161 211.746,204.823 209.271,204.098 208.398 C 203.741 207.969,203.843 208.320,204.326 209.180 M217.934 211.069 C 218.505 211.780,220.703 213.454,220.703 213.178 C 220.703 213.092,219.956 212.428,219.043 211.702 C 218.130 210.976,217.631 210.692,217.934 211.069 M230.078 214.258 C 230.807 215.010,231.491 215.625,231.599 215.625 C 231.706 215.625,231.198 215.010,230.469 214.258 C 229.740 213.506,229.056 212.891,228.948 212.891 C 228.841 212.891,229.349 213.506,230.078 214.258 M289.041 224.121 L 287.695 225.586 289.160 224.240 C 290.524 222.987,290.805 222.656,290.506 222.656 C 290.441 222.656,289.782 223.315,289.041 224.121 M229.688 225.192 C 229.688 225.459,232.079 226.645,232.258 226.466 C 232.343 226.381,231.799 226.020,231.050 225.662 C 230.301 225.305,229.688 225.093,229.688 225.192 M169.708 229.785 L 168.164 231.445 169.824 229.901 C 171.368 228.465,171.664 228.125,171.368 228.125 C 171.305 228.125,170.557 228.872,169.708 229.785 M132.525 229.187 C 133.119 229.276,133.998 229.274,134.478 229.181 C 134.958 229.089,134.473 229.015,133.398 229.018 C 132.324 229.021,131.931 229.097,132.525 229.187 M220.117 232.422 C 221.175 233.496,222.129 234.375,222.236 234.375 C 222.344 234.375,221.566 233.496,220.508 232.422 C 219.450 231.348,218.496 230.469,218.389 230.469 C 218.281 230.469,219.059 231.348,220.117 232.422 M244.727 231.641 C 245.156 231.825,245.771 231.976,246.094 231.976 C 246.463 231.976,246.391 231.852,245.898 231.641 C 245.469 231.456,244.854 231.305,244.531 231.305 C 244.162 231.305,244.234 231.429,244.727 231.641 M166.016 232.860 C 164.654 234.054,164.654 234.055,165.906 233.222 C 166.598 232.762,167.267 232.218,167.394 232.013 C 167.771 231.403,167.458 231.595,166.016 232.860 M257.916 234.265 C 258.509 234.354,259.388 234.352,259.869 234.259 C 260.349 234.167,259.863 234.093,258.789 234.096 C 257.715 234.099,257.322 234.175,257.916 234.265 M264.947 234.265 C 265.541 234.354,266.419 234.352,266.900 234.259 C 267.380 234.167,266.895 234.093,265.820 234.096 C 264.746 234.099,264.353 234.175,264.947 234.265 M135.063 244.026 C 135.549 244.120,136.252 244.116,136.626 244.018 C 136.999 243.921,136.602 243.844,135.742 243.849 C 134.883 243.853,134.577 243.933,135.063 244.026 M104.226 244.433 C 109.451 244.495,117.889 244.495,122.976 244.433 C 128.064 244.372,123.789 244.321,113.477 244.321 C 103.164 244.321,99.001 244.372,104.226 244.433 " stroke="none" fill="#222223" fill-rule="evenodd"></path><path id="path2" d="M261.523 129.297 C 263.269 129.741,265.546 129.741,265.820 129.297 C 265.974 129.049,265.021 128.923,263.207 128.952 C 261.065 128.987,260.644 129.073,261.523 129.297 M92.578 130.566 C 92.578 130.923,129.514 130.886,130.785 130.527 C 131.281 130.388,122.887 130.273,112.132 130.273 C 101.377 130.273,92.578 130.405,92.578 130.566 M110.305 145.389 C 110.079 145.753,134.209 145.763,135.864 145.401 C 136.576 145.245,131.154 145.117,123.816 145.117 C 116.478 145.117,110.398 145.240,110.305 145.389 M305.334 148.761 C 304.978 149.154,304.688 149.620,304.688 149.798 C 304.688 149.975,305.039 149.714,305.469 149.219 C 305.898 148.723,306.250 148.257,306.250 148.182 C 306.250 147.890,305.953 148.078,305.334 148.761 M144.739 151.543 C 144.595 151.776,144.326 151.872,144.141 151.758 C 143.955 151.643,143.706 151.708,143.586 151.902 C 143.466 152.096,143.718 152.346,144.146 152.458 C 144.573 152.570,144.834 152.517,144.725 152.341 C 144.616 152.164,144.747 151.941,145.017 151.845 C 145.287 151.748,145.394 151.546,145.254 151.395 C 145.114 151.244,144.882 151.310,144.739 151.543 M231.229 158.105 L 229.883 159.570 231.348 158.224 C 232.711 156.971,232.992 156.641,232.694 156.641 C 232.629 156.641,231.969 157.300,231.229 158.105 M176.172 161.719 C 176.402 162.148,176.787 162.500,177.027 162.500 C 177.268 162.500,177.147 162.148,176.758 161.719 C 176.369 161.289,175.984 160.938,175.902 160.938 C 175.821 160.938,175.942 161.289,176.172 161.719 M171.840 164.388 C 172.051 164.781,172.533 165.353,172.913 165.657 C 173.402 166.050,173.344 165.842,172.712 164.941 C 171.747 163.566,171.221 163.232,171.840 164.388 M190.625 172.778 C 190.625 172.846,191.196 173.417,191.895 174.048 L 193.164 175.195 192.017 173.926 C 190.947 172.742,190.625 172.477,190.625 172.778 M169.897 186.426 C 169.883 186.694,169.815 187.500,169.744 188.217 C 169.674 188.934,169.760 189.989,169.936 190.561 C 170.164 191.306,170.249 190.797,170.234 188.770 C 170.217 186.403,169.982 184.767,169.897 186.426 M280.371 186.230 C 285.151 186.292,292.974 186.292,297.754 186.230 C 302.534 186.168,298.623 186.117,289.063 186.117 C 279.502 186.117,275.591 186.168,280.371 186.230 M195.299 198.844 C 194.757 199.188,194.876 199.281,195.983 199.380 C 196.244 199.404,196.737 199.773,197.078 200.200 C 197.692 200.968,197.695 200.967,197.309 200.163 C 196.712 198.922,195.959 198.427,195.299 198.844 M157.983 218.457 L 156.836 219.727 158.105 218.579 C 159.289 217.510,159.555 217.188,159.253 217.188 C 159.186 217.188,158.614 217.759,157.983 218.457 M290.393 222.326 L 289.648 223.168 290.723 222.476 C 291.830 221.764,292.040 221.484,291.467 221.484 C 291.285 221.484,290.802 221.863,290.393 222.326 M241.406 222.934 C 241.406 223.391,241.531 223.430,241.930 223.098 C 242.219 222.859,242.526 222.705,242.614 222.757 C 242.702 222.809,242.724 222.773,242.664 222.677 C 242.372 222.211,241.406 222.408,241.406 222.934 M110.547 229.365 C 110.547 229.542,111.074 229.688,111.719 229.688 C 112.363 229.688,112.891 229.620,112.891 229.537 C 112.891 229.453,112.363 229.308,111.719 229.214 C 111.074 229.119,110.547 229.187,110.547 229.365 M119.238 229.176 C 119.614 229.274,120.229 229.274,120.605 229.176 C 120.981 229.077,120.674 228.997,119.922 228.997 C 119.170 228.997,118.862 229.077,119.238 229.176 M122.363 229.176 C 122.739 229.274,123.354 229.274,123.730 229.176 C 124.106 229.077,123.799 228.997,123.047 228.997 C 122.295 228.997,121.987 229.077,122.363 229.176 M125.488 229.176 C 125.864 229.274,126.479 229.274,126.855 229.176 C 127.231 229.077,126.924 228.997,126.172 228.997 C 125.420 228.997,125.112 229.077,125.488 229.176 M128.320 229.297 C 128.168 229.543,128.989 229.671,130.543 229.643 C 132.889 229.600,132.932 229.582,131.445 229.274 C 129.311 228.833,128.604 228.838,128.320 229.297 M261.523 234.391 C 260.972 234.617,261.364 234.719,262.858 234.738 C 264.022 234.753,264.901 234.703,264.811 234.626 C 264.384 234.261,262.219 234.106,261.523 234.391 M92.824 244.153 C 93.091 244.419,93.546 244.427,94.172 244.177 C 95.060 243.822,95.036 243.798,93.770 243.775 C 92.845 243.758,92.548 243.876,92.824 244.153 M96.387 244.033 C 97.085 244.119,98.228 244.119,98.926 244.033 C 99.624 243.946,99.053 243.875,97.656 243.875 C 96.260 243.875,95.688 243.946,96.387 244.033 M104.199 244.040 C 105.757 244.114,108.306 244.114,109.863 244.040 C 111.421 243.966,110.146 243.905,107.031 243.905 C 103.916 243.905,102.642 243.966,104.199 244.040 M132.227 244.141 C 133.312 244.607,134.077 244.607,133.789 244.141 C 133.656 243.926,133.075 243.762,132.496 243.777 C 131.558 243.802,131.529 243.841,132.227 244.141 M258.789 248.828 C 258.637 249.074,259.509 249.219,261.133 249.219 C 262.757 249.219,263.628 249.074,263.477 248.828 C 263.344 248.613,262.289 248.438,261.133 248.438 C 259.977 248.438,258.922 248.613,258.789 248.828 " stroke="none" fill="#3e3e3f" fill-rule="evenodd"></path><path id="path3" d="M259.869 129.577 C 260.462 129.667,261.341 129.665,261.822 129.572 C 262.302 129.479,261.816 129.406,260.742 129.409 C 259.668 129.412,259.275 129.487,259.869 129.577 M101.079 130.354 C 101.565 130.448,102.268 130.444,102.641 130.347 C 103.015 130.249,102.617 130.172,101.758 130.177 C 100.898 130.181,100.593 130.261,101.079 130.354 M114.531 130.369 C 116.400 130.440,119.564 130.440,121.562 130.369 C 123.560 130.298,122.031 130.240,118.164 130.240 C 114.297 130.239,112.662 130.297,114.531 130.369 M130.766 130.745 C 131.252 130.838,131.955 130.835,132.329 130.737 C 132.702 130.639,132.305 130.563,131.445 130.567 C 130.586 130.572,130.280 130.652,130.766 130.745 M301.172 143.858 C 301.172 143.933,301.722 144.511,302.394 145.142 C 303.413 146.098,303.542 146.144,303.167 145.419 C 302.790 144.691,301.172 143.425,301.172 143.858 M132.324 145.198 C 132.808 145.291,133.599 145.291,134.082 145.198 C 134.565 145.104,134.170 145.028,133.203 145.028 C 132.236 145.028,131.841 145.104,132.324 145.198 M135.645 145.582 C 136.021 145.680,136.636 145.680,137.012 145.582 C 137.388 145.484,137.080 145.403,136.328 145.403 C 135.576 145.403,135.269 145.484,135.645 145.582 M173.416 148.218 C 174.157 148.983,174.829 149.609,174.911 149.609 C 175.249 149.609,173.195 147.299,172.656 147.073 C 172.334 146.938,172.676 147.453,173.416 148.218 M182.840 160.352 C 182.840 160.566,183.091 161.182,183.398 161.719 C 183.705 162.256,183.957 162.520,183.957 162.305 C 183.957 162.090,183.705 161.475,183.398 160.938 C 183.091 160.400,182.840 160.137,182.840 160.352 M203.606 182.422 C 203.606 183.174,203.687 183.481,203.785 183.105 C 203.883 182.729,203.883 182.114,203.785 181.738 C 203.687 181.362,203.606 181.670,203.606 182.422 M169.617 187.477 C 169.599 188.134,169.639 188.672,169.707 188.672 C 170.010 188.672,170.189 187.151,169.934 186.739 C 169.777 186.484,169.636 186.812,169.617 187.477 M199.231 198.730 C 199.238 198.892,199.721 199.361,200.305 199.773 L 201.367 200.523 200.420 199.480 C 199.425 198.384,199.211 198.249,199.231 198.730 M206.641 213.040 C 206.641 213.459,207.803 215.625,208.028 215.625 C 208.135 215.625,207.933 215.054,207.578 214.355 C 206.852 212.930,206.641 212.632,206.641 213.040 M213.830 214.396 C 214.657 215.327,214.844 215.412,214.844 214.857 C 214.844 214.650,214.448 214.273,213.965 214.019 C 213.091 213.561,213.090 213.563,213.830 214.396 M217.137 229.177 C 217.608 230.084,218.299 230.659,218.579 230.379 C 218.671 230.287,218.284 229.786,217.719 229.266 C 216.739 228.364,216.712 228.360,217.137 229.177 M112.721 229.339 C 112.981 229.759,128.002 229.813,128.259 229.395 C 128.358 229.233,124.854 229.077,120.472 229.046 C 115.886 229.014,112.597 229.138,112.721 229.339 M299.768 232.869 C 299.029 233.702,299.029 233.704,299.881 233.258 C 300.830 232.760,301.415 232.031,300.865 232.031 C 300.671 232.031,300.177 232.408,299.768 232.869 " stroke="none" fill="#343433" fill-rule="evenodd"></path><path id="path4" d="M257.329 129.183 C 257.815 129.276,258.518 129.272,258.891 129.175 C 259.265 129.077,258.867 129.000,258.008 129.005 C 257.148 129.009,256.843 129.089,257.329 129.183 M268.457 129.176 C 268.833 129.274,269.448 129.274,269.824 129.176 C 270.200 129.077,269.893 128.997,269.141 128.997 C 268.389 128.997,268.081 129.077,268.457 129.176 M91.892 165.723 L 91.988 201.758 92.090 166.037 C 92.170 138.058,92.297 130.250,92.678 130.008 C 93.023 129.789,92.966 129.698,92.480 129.693 C 91.834 129.688,91.802 131.626,91.892 165.723 M103.445 129.980 C 108.670 130.042,117.107 130.042,122.195 129.980 C 127.283 129.918,123.008 129.868,112.695 129.868 C 102.383 129.868,98.220 129.919,103.445 129.980 M134.277 130.354 C 134.761 130.447,135.552 130.447,136.035 130.354 C 136.519 130.261,136.123 130.185,135.156 130.185 C 134.189 130.185,133.794 130.261,134.277 130.354 M137.988 130.738 C 138.364 130.836,138.979 130.836,139.355 130.738 C 139.731 130.640,139.424 130.559,138.672 130.559 C 137.920 130.559,137.612 130.640,137.988 130.738 M92.677 135.742 C 92.681 136.602,92.761 136.907,92.854 136.421 C 92.948 135.935,92.944 135.232,92.847 134.859 C 92.749 134.485,92.672 134.883,92.677 135.742 M160.938 138.062 C 160.938 138.172,161.436 138.519,162.044 138.834 C 162.978 139.316,163.151 139.321,163.151 138.861 C 163.151 138.561,163.008 138.404,162.834 138.512 C 162.659 138.620,162.161 138.518,161.727 138.286 C 161.293 138.053,160.938 137.953,160.938 138.062 M221.264 144.238 L 220.117 145.508 221.387 144.361 C 222.085 143.729,222.656 143.158,222.656 143.091 C 222.656 142.789,222.334 143.055,221.264 144.238 M303.125 145.117 C 304.292 146.299,305.335 147.266,305.442 147.266 C 305.549 147.266,304.683 146.299,303.516 145.117 C 302.349 143.936,301.306 142.969,301.199 142.969 C 301.091 142.969,301.958 143.936,303.125 145.117 M117.505 144.824 C 120.794 144.889,126.068 144.889,129.223 144.823 C 132.379 144.758,129.688 144.704,123.242 144.704 C 116.797 144.704,114.215 144.758,117.505 144.824 M173.242 147.266 C 174.300 148.340,175.254 149.219,175.361 149.219 C 175.469 149.219,174.691 148.340,173.633 147.266 C 172.575 146.191,171.621 145.313,171.514 145.313 C 171.406 145.313,172.184 146.191,173.242 147.266 M260.661 145.603 C 262.120 145.678,264.405 145.677,265.739 145.601 C 267.073 145.525,265.879 145.464,263.086 145.464 C 260.293 145.465,259.202 145.527,260.661 145.603 M110.643 187.402 L 110.739 229.102 110.840 187.717 C 110.919 155.206,111.045 146.267,111.428 146.024 C 111.773 145.805,111.716 145.713,111.230 145.709 C 110.583 145.703,110.552 147.911,110.643 187.402 M112.798 145.979 C 113.283 146.073,113.987 146.069,114.360 145.972 C 114.733 145.874,114.336 145.797,113.477 145.802 C 112.617 145.806,112.312 145.886,112.798 145.979 M116.113 145.972 C 116.489 146.071,117.104 146.071,117.480 145.972 C 117.856 145.874,117.549 145.794,116.797 145.794 C 116.045 145.794,115.737 145.874,116.113 145.972 M119.438 145.979 C 119.924 146.073,120.627 146.069,121.001 145.972 C 121.374 145.874,120.977 145.797,120.117 145.802 C 119.258 145.806,118.952 145.886,119.438 145.979 M135.050 145.985 C 135.743 146.071,136.974 146.073,137.784 145.988 C 138.595 145.904,138.027 145.833,136.523 145.831 C 135.020 145.830,134.356 145.899,135.050 145.985 M269.238 145.972 C 269.614 146.071,270.229 146.071,270.605 145.972 C 270.981 145.874,270.674 145.794,269.922 145.794 C 269.170 145.794,268.862 145.874,269.238 145.972 M216.587 148.926 L 214.648 150.977 216.699 149.038 C 218.605 147.237,218.929 146.875,218.638 146.875 C 218.576 146.875,217.653 147.798,216.587 148.926 M302.720 151.591 L 301.367 152.791 302.832 151.740 C 304.127 150.811,304.548 150.391,304.184 150.391 C 304.123 150.391,303.463 150.931,302.720 151.591 M141.894 151.660 C 141.984 151.929,142.353 152.174,142.716 152.206 C 143.225 152.251,143.239 152.222,142.776 152.079 C 142.447 151.977,142.278 151.732,142.401 151.533 C 142.524 151.334,142.423 151.172,142.178 151.172 C 141.933 151.172,141.805 151.392,141.894 151.660 M160.547 152.148 C 161.084 152.455,161.699 152.707,161.914 152.707 C 162.129 152.707,161.865 152.455,161.328 152.148 C 160.791 151.841,160.176 151.590,159.961 151.590 C 159.746 151.590,160.010 151.841,160.547 152.148 M231.825 157.903 C 230.327 159.457,229.641 160.245,230.301 159.655 C 230.960 159.065,231.663 158.717,231.863 158.881 C 232.063 159.046,232.091 159.015,231.925 158.813 C 231.759 158.611,232.367 157.688,233.276 156.762 C 234.185 155.836,234.843 155.078,234.739 155.078 C 234.635 155.078,233.324 156.349,231.825 157.903 M289.844 155.591 C 289.844 155.658,290.415 156.229,291.113 156.861 L 292.383 158.008 291.236 156.738 C 290.166 155.555,289.844 155.289,289.844 155.591 M293.957 158.029 C 293.533 158.349,292.962 158.525,292.687 158.419 C 292.041 158.171,292.051 158.385,292.710 158.932 C 293.109 159.263,293.447 159.136,294.145 158.394 C 295.172 157.300,295.101 157.163,293.957 158.029 M156.902 160.087 C 157.583 160.733,158.037 161.364,157.911 161.490 C 157.785 161.616,157.913 161.719,158.195 161.719 C 158.478 161.719,159.664 162.729,160.832 163.965 L 162.956 166.211 160.964 163.830 C 159.869 162.521,158.228 160.879,157.319 160.182 C 155.705 158.945,155.694 158.943,156.902 160.087 M178.349 164.160 C 178.459 164.429,179.025 164.985,179.606 165.396 C 180.662 166.141,180.662 166.141,179.517 164.907 C 178.264 163.558,178.046 163.419,178.349 164.160 M182.796 168.848 C 184.415 170.572,184.766 170.882,184.766 170.589 C 184.766 170.526,183.931 169.691,182.910 168.734 L 181.055 166.992 182.796 168.848 M92.669 169.922 C 92.669 170.674,92.749 170.981,92.847 170.605 C 92.946 170.229,92.946 169.614,92.847 169.238 C 92.749 168.862,92.669 169.170,92.669 169.922 M189.355 170.898 C 190.019 171.758,191.495 173.340,192.635 174.414 C 194.313 175.995,194.193 175.809,192.007 173.438 C 188.314 169.431,187.957 169.090,189.355 170.898 M184.766 171.216 C 184.766 171.283,185.337 171.854,186.035 172.486 L 187.305 173.633 186.157 172.363 C 185.088 171.180,184.766 170.914,184.766 171.216 M167.633 176.172 C 167.633 176.494,167.784 177.109,167.969 177.539 C 168.180 178.031,168.304 178.104,168.304 177.734 C 168.304 177.412,168.153 176.797,167.969 176.367 C 167.757 175.875,167.633 175.803,167.633 176.172 M203.216 176.953 C 203.216 177.705,203.296 178.013,203.394 177.637 C 203.493 177.261,203.493 176.646,203.394 176.270 C 203.296 175.894,203.216 176.201,203.216 176.953 M190.202 176.704 C 190.722 177.345,192.188 178.314,192.188 178.017 C 192.188 177.942,191.616 177.463,190.918 176.952 C 190.132 176.377,189.860 176.282,190.202 176.704 M195.448 176.873 C 196.328 177.862,196.012 178.498,194.606 178.569 C 193.654 178.617,193.640 178.638,194.455 178.794 C 196.263 179.140,197.110 177.525,195.605 176.601 C 194.737 176.068,194.735 176.071,195.448 176.873 M169.247 184.766 C 169.247 185.732,169.323 186.128,169.416 185.645 C 169.509 185.161,169.509 184.370,169.416 183.887 C 169.323 183.403,169.247 183.799,169.247 184.766 M203.231 185.547 C 203.231 186.514,203.308 186.909,203.401 186.426 C 203.494 185.942,203.494 185.151,203.401 184.668 C 203.308 184.185,203.231 184.580,203.231 185.547 M92.727 188.867 C 92.728 191.445,92.791 192.449,92.868 191.098 C 92.944 189.747,92.944 187.637,92.866 186.410 C 92.789 185.184,92.726 186.289,92.727 188.867 M220.050 186.914 C 220.052 188.418,220.122 188.985,220.207 188.175 C 220.292 187.364,220.290 186.134,220.204 185.441 C 220.118 184.747,220.048 185.410,220.050 186.914 M284.277 187.011 C 289.487 187.073,298.013 187.073,303.223 187.011 C 308.433 186.950,304.170 186.900,293.750 186.900 C 283.330 186.900,279.067 186.950,284.277 187.011 M314.196 190.820 C 314.198 192.539,314.267 193.194,314.349 192.275 C 314.432 191.356,314.430 189.950,314.346 189.150 C 314.263 188.350,314.195 189.102,314.196 190.820 M187.255 194.336 C 187.256 196.699,187.321 197.616,187.398 196.372 C 187.476 195.129,187.476 193.196,187.397 192.076 C 187.318 190.955,187.255 191.973,187.255 194.336 M169.247 192.188 C 169.247 193.154,169.323 193.550,169.416 193.066 C 169.509 192.583,169.509 191.792,169.416 191.309 C 169.323 190.825,169.247 191.221,169.247 192.188 M186.435 194.141 C 186.435 195.107,186.511 195.503,186.604 195.020 C 186.697 194.536,186.697 193.745,186.604 193.262 C 186.511 192.778,186.435 193.174,186.435 194.141 M92.712 199.805 C 92.713 201.523,92.782 202.178,92.865 201.259 C 92.947 200.340,92.946 198.934,92.862 198.134 C 92.778 197.334,92.711 198.086,92.712 199.805 M195.095 197.620 C 195.212 197.810,195.045 198.066,194.724 198.189 C 193.938 198.491,193.987 199.077,194.824 199.395 C 195.375 199.605,195.412 199.559,195.016 199.160 C 194.620 198.761,194.686 198.578,195.355 198.220 C 196.083 197.830,196.105 197.744,195.533 197.525 C 195.175 197.387,194.977 197.430,195.095 197.620 M200.586 199.609 C 201.425 200.469,202.200 201.172,202.307 201.172 C 202.414 201.172,201.816 200.469,200.977 199.609 C 200.137 198.750,199.363 198.047,199.256 198.047 C 199.148 198.047,199.747 198.750,200.586 199.609 M297.377 202.930 C 297.380 204.004,297.456 204.397,297.546 203.803 C 297.636 203.209,297.633 202.331,297.541 201.850 C 297.448 201.370,297.374 201.855,297.377 202.930 M91.987 223.210 C 91.992 241.944,92.066 244.682,92.578 244.821 C 93.008 244.939,93.035 244.890,92.679 244.638 C 92.306 244.373,92.170 239.416,92.088 223.026 L 91.982 201.758 91.987 223.210 M92.677 204.492 C 92.681 205.352,92.761 205.657,92.854 205.171 C 92.948 204.685,92.944 203.982,92.847 203.609 C 92.749 203.235,92.672 203.633,92.677 204.492 M206.250 205.982 C 206.250 206.049,206.821 206.620,207.520 207.251 L 208.789 208.398 207.642 207.129 C 206.572 205.946,206.250 205.680,206.250 205.982 M92.677 207.617 C 92.681 208.477,92.761 208.782,92.854 208.296 C 92.948 207.810,92.944 207.107,92.847 206.734 C 92.749 206.360,92.672 206.758,92.677 207.617 M92.677 210.742 C 92.681 211.602,92.761 211.907,92.854 211.421 C 92.948 210.935,92.944 210.232,92.847 209.859 C 92.749 209.485,92.672 209.883,92.677 210.742 M216.797 210.742 C 217.526 211.494,218.210 212.109,218.317 212.109 C 218.425 212.109,217.916 211.494,217.188 210.742 C 216.459 209.990,215.774 209.375,215.667 209.375 C 215.560 209.375,216.068 209.990,216.797 210.742 M92.669 213.672 C 92.669 214.424,92.749 214.731,92.847 214.355 C 92.946 213.979,92.946 213.364,92.847 212.988 C 92.749 212.612,92.669 212.920,92.669 213.672 M214.063 213.867 C 214.791 214.619,215.476 215.234,215.583 215.234 C 215.690 215.234,215.182 214.619,214.453 213.867 C 213.724 213.115,213.040 212.500,212.933 212.500 C 212.825 212.500,213.334 213.115,214.063 213.867 M160.550 215.425 C 160.285 215.745,159.868 215.893,159.624 215.753 C 159.379 215.614,159.315 215.649,159.481 215.831 C 159.811 216.194,157.065 219.208,156.642 218.946 C 156.498 218.857,156.380 219.050,156.380 219.375 C 156.380 219.706,157.467 218.888,158.854 217.514 C 160.215 216.165,161.328 215.013,161.328 214.953 C 161.328 214.687,160.995 214.889,160.550 215.425 M208.008 216.797 C 208.341 217.441,208.702 217.969,208.809 217.969 C 208.917 217.969,208.732 217.441,208.398 216.797 C 208.065 216.152,207.705 215.625,207.597 215.625 C 207.490 215.625,207.675 216.152,208.008 216.797 M293.164 217.969 C 292.831 218.613,292.646 219.141,292.753 219.141 C 292.861 219.141,293.221 218.613,293.555 217.969 C 293.888 217.324,294.073 216.797,293.965 216.797 C 293.858 216.797,293.497 217.324,293.164 217.969 M92.677 220.117 C 92.681 220.977,92.761 221.282,92.854 220.796 C 92.948 220.310,92.944 219.607,92.847 219.234 C 92.749 218.860,92.672 219.258,92.677 220.117 M177.905 221.356 C 177.304 222.145,177.011 222.667,177.255 222.516 C 177.755 222.207,179.446 219.922,179.175 219.922 C 179.078 219.922,178.507 220.567,177.905 221.356 M290.014 222.363 L 288.867 223.633 290.137 222.486 C 290.835 221.854,291.406 221.283,291.406 221.216 C 291.406 220.914,291.084 221.180,290.014 222.363 M92.669 223.047 C 92.669 223.799,92.749 224.106,92.847 223.730 C 92.946 223.354,92.946 222.739,92.847 222.363 C 92.749 221.987,92.669 222.295,92.669 223.047 M243.077 222.636 C 243.195 223.088,243.052 223.468,242.724 223.572 C 242.405 223.674,242.463 223.723,242.863 223.687 C 243.630 223.618,244.090 221.875,243.341 221.875 C 243.074 221.875,242.962 222.198,243.077 222.636 M214.018 226.109 C 214.452 226.719,215.116 227.466,215.494 227.769 C 215.871 228.072,215.586 227.573,214.860 226.660 C 213.370 224.785,212.818 224.423,214.018 226.109 M172.060 228.223 L 169.336 231.055 172.168 228.331 C 174.798 225.801,175.178 225.391,174.892 225.391 C 174.832 225.391,173.558 226.665,172.060 228.223 M131.144 228.798 C 131.837 228.884,133.068 228.885,133.878 228.801 C 134.688 228.716,134.121 228.646,132.617 228.644 C 131.113 228.642,130.450 228.711,131.144 228.798 M217.383 230.078 C 218.222 230.938,218.996 231.641,219.104 231.641 C 219.211 231.641,218.613 230.938,217.773 230.078 C 216.934 229.219,216.160 228.516,216.052 228.516 C 215.945 228.516,216.544 229.219,217.383 230.078 M280.469 229.688 C 279.717 230.099,279.242 230.443,279.414 230.452 C 279.828 230.474,282.031 229.328,282.031 229.092 C 282.031 228.836,282.008 228.845,280.469 229.688 M115.144 229.971 C 115.846 230.058,116.900 230.056,117.487 229.967 C 118.074 229.877,117.500 229.806,116.211 229.809 C 114.922 229.811,114.442 229.884,115.144 229.971 M299.252 233.937 C 295.056 238.216,295.197 238.342,299.541 234.195 C 301.562 232.266,303.959 229.529,303.445 229.738 C 303.376 229.766,301.489 231.655,299.252 233.937 M245.117 231.250 C 245.547 231.435,246.162 231.586,246.484 231.586 C 246.854 231.586,246.781 231.462,246.289 231.250 C 245.859 231.065,245.244 230.914,244.922 230.914 C 244.553 230.914,244.625 231.038,245.117 231.250 M221.094 233.733 C 222.061 234.766,223.555 236.154,224.414 236.818 C 226.229 238.220,225.823 237.793,222.070 234.358 C 219.975 232.440,219.747 232.294,221.094 233.733 M258.110 233.870 C 258.596 233.963,259.299 233.960,259.673 233.862 C 260.046 233.764,259.648 233.688,258.789 233.692 C 257.930 233.697,257.624 233.777,258.110 233.870 M263.972 233.877 C 264.674 233.964,265.729 233.962,266.316 233.873 C 266.903 233.784,266.328 233.713,265.039 233.715 C 263.750 233.717,263.270 233.790,263.972 233.877 M92.669 238.672 C 92.669 239.424,92.749 239.731,92.847 239.355 C 92.946 238.979,92.946 238.364,92.847 237.988 C 92.749 237.612,92.669 237.920,92.669 238.672 M226.172 238.033 C 226.172 238.140,226.699 238.604,227.344 239.063 C 227.988 239.521,228.516 239.809,228.516 239.702 C 228.516 239.594,227.988 239.131,227.344 238.672 C 226.699 238.213,226.172 237.925,226.172 238.033 M155.859 239.258 C 155.322 239.565,155.059 239.816,155.273 239.816 C 155.488 239.816,156.104 239.565,156.641 239.258 C 157.178 238.951,157.441 238.700,157.227 238.700 C 157.012 238.700,156.396 238.951,155.859 239.258 M233.295 242.704 C 233.667 242.999,233.843 243.384,233.685 243.558 C 233.528 243.733,233.612 243.753,233.873 243.603 C 234.135 243.453,235.074 243.700,235.962 244.153 C 236.850 244.606,237.641 244.911,237.721 244.831 C 237.800 244.752,236.685 244.120,235.241 243.427 C 233.798 242.734,232.922 242.408,233.295 242.704 M135.449 244.416 C 135.933 244.509,136.724 244.509,137.207 244.416 C 137.690 244.323,137.295 244.247,136.328 244.247 C 135.361 244.247,134.966 244.323,135.449 244.416 M97.363 244.820 C 98.599 244.897,100.620 244.897,101.855 244.820 C 103.091 244.742,102.080 244.679,99.609 244.679 C 97.139 244.679,96.128 244.742,97.363 244.820 M113.003 244.820 C 114.246 244.898,116.179 244.897,117.299 244.819 C 118.420 244.740,117.402 244.676,115.039 244.677 C 112.676 244.678,111.759 244.743,113.003 244.820 M121.769 244.813 C 122.462 244.899,123.693 244.901,124.503 244.816 C 125.313 244.732,124.746 244.661,123.242 244.659 C 121.738 244.658,121.075 244.727,121.769 244.813 M126.860 244.808 C 127.346 244.901,128.049 244.897,128.423 244.800 C 128.796 244.702,128.398 244.625,127.539 244.630 C 126.680 244.634,126.374 244.714,126.860 244.808 M243.164 246.875 C 243.594 247.060,244.209 247.211,244.531 247.211 C 244.901 247.211,244.828 247.087,244.336 246.875 C 243.906 246.690,243.291 246.539,242.969 246.539 C 242.599 246.539,242.672 246.663,243.164 246.875 M254.791 249.108 C 255.384 249.198,256.263 249.196,256.744 249.103 C 257.224 249.010,256.738 248.937,255.664 248.940 C 254.590 248.943,254.197 249.019,254.791 249.108 M266.113 249.097 C 266.489 249.196,267.104 249.196,267.480 249.097 C 267.856 248.999,267.549 248.919,266.797 248.919 C 266.045 248.919,265.737 248.999,266.113 249.097 " stroke="none" fill="#7e7f7e" fill-rule="evenodd"></path></g></svg>